<svg width="95" height="91" viewBox="0 0 95 91" fill="none" xmlns="http://www.w3.org/2000/svg">
<path d="M46.0687 80.6667H0V66.55C0 63.6931 0.765625 61.0672 2.29688 58.6724C3.82812 56.2776 5.8625 54.45 8.4 53.1896C13.825 50.5847 19.3375 48.6311 24.9375 47.3286C30.5375 46.0262 36.225 45.375 42 45.375V55.4583C37.1 55.4583 32.2437 56.0255 27.4312 57.1599C22.6187 58.2943 17.85 59.9958 13.125 62.2646C12.3375 62.6847 11.7031 63.2729 11.2219 64.0292C10.7406 64.7854 10.5 65.6257 10.5 66.55V70.5833H42.6562C43.0062 72.3479 43.4656 74.0705 44.0344 75.751C44.6031 77.4316 45.2812 79.0701 46.0687 80.6667ZM73.5 90.75C67.1125 89.2375 62.0156 85.8764 58.2094 80.6667C54.4031 75.4569 52.5 69.659 52.5 63.2729V50.4167L73.5 40.3333L94.5 50.4167V63.2729C94.5 69.659 92.5969 75.4569 88.7906 80.6667C84.9844 85.8764 79.8875 89.2375 73.5 90.75ZM73.5 80.1625C76.825 78.65 79.4062 76.3392 81.2437 73.2302C83.0812 70.1212 84 66.8021 84 63.2729V56.7188L73.5 51.6771L63 56.7188V63.2729C63 66.8021 63.9187 70.1212 65.7562 73.2302C67.5938 76.3392 70.175 78.65 73.5 80.1625ZM27.1687 34.4094C23.0562 30.4601 21 25.7125 21 20.1667C21 14.6208 23.0562 9.87326 27.1687 5.92396C31.2812 1.97465 36.225 0 42 0C47.775 0 52.7187 1.97465 56.8312 5.92396C60.9437 9.87326 63 14.6208 63 20.1667C63 25.7125 60.9437 30.4601 56.8312 34.4094C52.7187 38.3587 47.775 40.3333 42 40.3333C36.225 40.3333 31.2812 38.3587 27.1687 34.4094ZM49.4156 27.288C51.4719 25.3134 52.5 22.9396 52.5 20.1667C52.5 17.3937 51.4719 15.02 49.4156 13.0453C47.3594 11.0707 44.8875 10.0833 42 10.0833C39.1125 10.0833 36.6406 11.0707 34.5844 13.0453C32.5281 15.02 31.5 17.3937 31.5 20.1667C31.5 22.9396 32.5281 25.3134 34.5844 27.288C36.6406 29.2627 39.1125 30.25 42 30.25C44.8875 30.25 47.3594 29.2627 49.4156 27.288Z" fill="#81D3BD"/>
</svg>
