<svg width="14" height="15" viewBox="0 0 14 15" fill="none" xmlns="http://www.w3.org/2000/svg">
<path d="M6.84277 1.28057C8.66979 1.28057 8.88616 1.28768 9.60791 1.32186C10.0419 1.32738 10.4717 1.41013 10.8787 1.56654C11.1739 1.68476 11.4419 1.86586 11.6656 2.09819C11.8893 2.33052 12.0637 2.60892 12.1775 2.91547C12.3281 3.33819 12.4078 3.78461 12.4131 4.2353C12.4457 4.9849 12.4529 5.20961 12.4529 7.10712C12.4529 9.00463 12.446 9.22933 12.4131 9.97893C12.4078 10.4296 12.3281 10.876 12.1775 11.2988C12.0637 11.6053 11.8893 11.8837 11.6656 12.116C11.4419 12.3484 11.1739 12.5295 10.8787 12.6477C10.4717 12.8041 10.0419 12.8869 9.60791 12.8924C8.88648 12.9262 8.67012 12.9337 6.84277 12.9337C5.01543 12.9337 4.79907 12.9266 4.07764 12.8924C3.64369 12.8869 3.21386 12.8041 2.80684 12.6477C2.51168 12.5295 2.24362 12.3484 2.01992 12.116C1.79623 11.8837 1.62185 11.6053 1.50802 11.2988C1.35742 10.876 1.27774 10.4296 1.27243 9.97893C1.23985 9.22933 1.23268 9.00463 1.23268 7.10712C1.23268 5.20961 1.23952 4.9849 1.27243 4.2353C1.27774 3.78461 1.35742 3.33819 1.50802 2.91547C1.62185 2.60892 1.79623 2.33052 2.01992 2.09819C2.24362 1.86586 2.51168 1.68476 2.80684 1.56654C3.21386 1.41013 3.64369 1.32738 4.07764 1.32186C4.79939 1.28802 5.01575 1.28057 6.84277 1.28057ZM6.84277 0C4.98545 0 4.75149 0.00812201 4.0216 0.0426406C3.45366 0.0543729 2.89176 0.166055 2.35978 0.372937C1.90343 0.551508 1.49009 0.831346 1.14861 1.19292C0.800148 1.54771 0.530476 1.97724 0.358431 2.4515C0.159235 3.004 0.0517014 3.58759 0.040405 4.17743C0.00782034 4.93481 0 5.17779 0 7.10678C0 9.03576 0.00782029 9.27874 0.0410566 10.0368C0.052353 10.6266 0.159886 11.2102 0.359083 11.7627C0.530937 12.2369 0.800383 12.6665 1.14861 13.0213C1.49028 13.383 1.90385 13.6628 2.36043 13.8413C2.89241 14.0482 3.45431 14.1599 4.02225 14.1716C4.75214 14.2054 4.98512 14.2142 6.84343 14.2142C8.70173 14.2142 8.93471 14.2061 9.6646 14.1716C10.2325 14.1599 10.7944 14.0482 11.3264 13.8413C11.7808 13.6584 12.1935 13.3789 12.538 13.0209C12.8825 12.6629 13.1513 12.2341 13.3271 11.7621C13.5263 11.2096 13.6338 10.626 13.6451 10.0361C13.6777 9.27874 13.6855 9.03576 13.6855 7.10678C13.6855 5.17779 13.6777 4.93481 13.6445 4.17675C13.6332 3.58691 13.5257 3.00332 13.3265 2.45082C13.1546 1.97662 12.8852 1.5471 12.5369 1.19225C12.1953 0.830587 11.7817 0.550744 11.3251 0.37226C10.7931 0.165378 10.2312 0.0536961 9.6633 0.0419639C8.93406 0.00812206 8.7001 0 6.84277 0Z" fill="white"/>
<path d="M6.83998 3.45703C6.14499 3.45703 5.46561 3.67107 4.88774 4.07208C4.30988 4.4731 3.85949 5.04307 3.59353 5.70993C3.32757 6.37679 3.25798 7.11058 3.39357 7.81851C3.52916 8.52645 3.86383 9.17673 4.35526 9.68712C4.84669 10.1975 5.47281 10.5451 6.15445 10.6859C6.83608 10.8267 7.54261 10.7545 8.1847 10.4782C8.82679 10.202 9.37559 9.73424 9.7617 9.13409C10.1478 8.53393 10.3539 7.82833 10.3539 7.10653C10.3539 6.13862 9.98369 5.21036 9.3247 4.52595C8.66571 3.84153 7.77193 3.45703 6.83998 3.45703ZM6.83998 9.47546C6.38885 9.47546 5.94786 9.33652 5.57276 9.07622C5.19767 8.81592 4.90532 8.44594 4.73268 8.01308C4.56004 7.58022 4.51487 7.1039 4.60288 6.64438C4.69089 6.18485 4.90813 5.76275 5.22712 5.43145C5.54611 5.10015 5.95254 4.87453 6.39499 4.78312C6.83745 4.69172 7.29607 4.73863 7.71285 4.91793C8.12963 5.09723 8.48587 5.40086 8.7365 5.79043C8.98713 6.17999 9.1209 6.638 9.1209 7.10653C9.1209 7.73481 8.88059 8.33736 8.45284 8.78162C8.02508 9.22587 7.44492 9.47546 6.83998 9.47546Z" fill="white"/>
<path d="M10.3057 4.21852C10.7123 4.21852 11.0419 3.88891 11.0419 3.48231C11.0419 3.07571 10.7123 2.74609 10.3057 2.74609C9.89907 2.74609 9.56946 3.07571 9.56946 3.48231C9.56946 3.88891 9.89907 4.21852 10.3057 4.21852Z" fill="white"/>
</svg>
