<svg width="15" height="15" viewBox="0 0 15 15" fill="none" xmlns="http://www.w3.org/2000/svg">
<path d="M3.96267 8.41778C3.10089 6.65844 4.27378 3.23156 8.21867 3.79156C12.5633 4.40911 11.7817 11.1633 8.15878 10.8989C7.01233 10.8157 6.57911 9.866 6.46556 8.89533M6.46556 8.89533C6.38 8.15956 6.478 7.41211 6.59 7.02089C6.77978 6.35433 7.09478 6.44533 6.86456 7.32656C6.75256 7.75589 6.61567 8.29489 6.46556 8.89533ZM6.46556 8.89533C6.06578 10.4976 5.57111 12.5392 5.19778 14.1127M14.5 7.5C14.5 8.41925 14.3189 9.32951 13.9672 10.1788C13.6154 11.0281 13.0998 11.7997 12.4497 12.4497C11.7997 13.0998 11.0281 13.6154 10.1788 13.9672C9.32951 14.3189 8.41925 14.5 7.5 14.5C6.58075 14.5 5.6705 14.3189 4.82122 13.9672C3.97194 13.6154 3.20026 13.0998 2.55025 12.4497C1.90024 11.7997 1.38463 11.0281 1.03284 10.1788C0.68106 9.32951 0.5 8.41925 0.5 7.5C0.5 5.64348 1.2375 3.86301 2.55025 2.55025C3.86301 1.2375 5.64348 0.5 7.5 0.5C9.35652 0.5 11.137 1.2375 12.4497 2.55025C13.7625 3.86301 14.5 5.64348 14.5 7.5Z" stroke="white" stroke-linecap="round" stroke-linejoin="round"/>
</svg>
