<svg width="49" height="44" viewBox="0 0 49 44" fill="none" xmlns="http://www.w3.org/2000/svg">
<path d="M13.5438 44C13.0396 44 12.5698 43.874 12.1344 43.6219C11.699 43.3698 11.3667 43.0146 11.1375 42.5563L5.775 33H9.7625L12.5125 38.5H18.8375V35.75H14.1625L11.4125 30.25H4.2625L0.34375 23.375C0.252083 23.1458 0.171875 22.9167 0.103125 22.6875C0.034375 22.4583 0 22.2292 0 22C0 21.8167 0.114583 21.3583 0.34375 20.625L4.2625 13.75H11.4125L14.1625 8.25H18.8375V5.5H12.5125L9.7625 11H5.775L11.1375 1.44375C11.3667 0.985417 11.699 0.630208 12.1344 0.378125C12.5698 0.126042 13.0396 0 13.5438 0H20.2125C20.9917 0 21.6448 0.263542 22.1719 0.790625C22.699 1.31771 22.9625 1.97083 22.9625 2.75V13.75H18.8375L16.0875 16.5H22.9625V24.75H16.9125L14.1625 19.25H7.8375L5.0875 22H12.5125L15.2625 27.5H22.9625V41.25C22.9625 42.0292 22.699 42.6823 22.1719 43.2094C21.6448 43.7365 20.9917 44 20.2125 44H13.5438ZM28.4625 44C27.6833 44 27.0302 43.7365 26.5031 43.2094C25.976 42.6823 25.7125 42.0292 25.7125 41.25V27.5H33.4125L36.1625 22H43.5875L40.8375 19.25H34.5125L31.7625 24.75H25.7125V16.5H32.5875L29.8375 13.75H25.7125V2.75C25.7125 1.97083 25.976 1.31771 26.5031 0.790625C27.0302 0.263542 27.6833 0 28.4625 0H35.1313C35.6354 0 36.1052 0.126042 36.5406 0.378125C36.976 0.630208 37.3083 0.985417 37.5375 1.44375L42.9 11H38.9125L36.1625 5.5H29.8375V8.25H34.5125L37.2625 13.75H44.4125L48.3312 20.625C48.4229 20.8542 48.5031 21.0833 48.5719 21.3125C48.6406 21.5417 48.675 21.7708 48.675 22C48.675 22.1833 48.5604 22.6417 48.3312 23.375L44.4125 30.25H37.2625L34.5125 35.75H29.8375V38.5H36.1625L38.9125 33H42.9L37.5375 42.5563C37.3083 43.0146 36.976 43.3698 36.5406 43.6219C36.1052 43.874 35.6354 44 35.1313 44H28.4625Z" fill="#8A68C4"/>
</svg>
