<svg width="55" height="55" viewBox="0 0 55 55" fill="none" xmlns="http://www.w3.org/2000/svg">
<path d="M24.75 55V32.2438C23.925 31.7396 23.2604 31.0865 22.7563 30.2844C22.2521 29.4823 22 28.5542 22 27.5C22 25.9875 22.5385 24.6927 23.6156 23.6156C24.6927 22.5385 25.9875 22 27.5 22C29.0125 22 30.3073 22.5385 31.3844 23.6156C32.4615 24.6927 33 25.9875 33 27.5C33 28.5542 32.7479 29.4938 32.2438 30.3188C31.7396 31.1438 31.075 31.7854 30.25 32.2438V55H24.75ZM8.525 47.4375C5.9125 44.9167 3.83854 41.949 2.30313 38.5344C0.767708 35.1198 0 31.4417 0 27.5C0 23.6958 0.721875 20.1208 2.16563 16.775C3.60938 13.4292 5.56875 10.5188 8.04375 8.04375C10.5188 5.56875 13.4292 3.60938 16.775 2.16563C20.1208 0.721875 23.6958 0 27.5 0C31.3042 0 34.8792 0.721875 38.225 2.16563C41.5708 3.60938 44.4813 5.56875 46.9562 8.04375C49.4313 10.5188 51.3906 13.4292 52.8344 16.775C54.2781 20.1208 55 23.6958 55 27.5C55 31.4417 54.2323 35.1313 52.6969 38.5688C51.1615 42.0063 49.0875 44.9625 46.475 47.4375L42.625 43.5875C44.7333 41.5708 46.4062 39.176 47.6437 36.4031C48.8813 33.6302 49.5 30.6625 49.5 27.5C49.5 21.3583 47.3688 16.1562 43.1063 11.8938C38.8438 7.63125 33.6417 5.5 27.5 5.5C21.3583 5.5 16.1562 7.63125 11.8938 11.8938C7.63125 16.1562 5.5 21.3583 5.5 27.5C5.5 30.6625 6.11875 33.6188 7.35625 36.3688C8.59375 39.1188 10.2896 41.5021 12.4438 43.5187L8.525 47.4375ZM16.2938 39.6688C14.6896 38.1562 13.4062 36.3573 12.4438 34.2719C11.4812 32.1865 11 29.9292 11 27.5C11 22.9167 12.6042 19.0208 15.8125 15.8125C19.0208 12.6042 22.9167 11 27.5 11C32.0833 11 35.9792 12.6042 39.1875 15.8125C42.3958 19.0208 44 22.9167 44 27.5C44 29.9292 43.5187 32.1979 42.5563 34.3063C41.5938 36.4146 40.3104 38.2021 38.7062 39.6688L34.7875 35.75C35.9333 34.6958 36.8385 33.4583 37.5031 32.0375C38.1677 30.6167 38.5 29.1042 38.5 27.5C38.5 24.475 37.4229 21.8854 35.2687 19.7313C33.1146 17.5771 30.525 16.5 27.5 16.5C24.475 16.5 21.8854 17.5771 19.7313 19.7313C17.5771 21.8854 16.5 24.475 16.5 27.5C16.5 29.15 16.8323 30.674 17.4969 32.0719C18.1615 33.4698 19.0667 34.6958 20.2125 35.75L16.2938 39.6688Z" fill="#F65C1C"/>
</svg>
