<svg width="60" height="75" viewBox="0 0 60 75" fill="none" xmlns="http://www.w3.org/2000/svg">
<path d="M26.0625 50.8125L47.25 29.625L41.9062 24.2812L26.0625 40.125L18.1875 32.25L12.8438 37.5938L26.0625 50.8125ZM30 75C21.3125 72.8125 14.1406 67.8281 8.48438 60.0469C2.82812 52.2656 0 43.625 0 34.125V11.25L30 0L60 11.25V34.125C60 43.625 57.1719 52.2656 51.5156 60.0469C45.8594 67.8281 38.6875 72.8125 30 75ZM30 67.125C36.5 65.0625 41.875 60.9375 46.125 54.75C50.375 48.5625 52.5 41.6875 52.5 34.125V16.4062L30 7.96875L7.5 16.4062V34.125C7.5 41.6875 9.625 48.5625 13.875 54.75C18.125 60.9375 23.5 65.0625 30 67.125Z" fill="#FE6235"/>
</svg>
