<svg width="61" height="60" viewBox="0 0 61 60" fill="none" xmlns="http://www.w3.org/2000/svg">
<path d="M26.3272 60C25.2647 60 24.3741 59.6406 23.6553 58.9219C22.9366 58.2031 22.5772 57.3125 22.5772 56.25V33.75L0.827206 6C-0.110294 4.75 -0.250919 3.4375 0.405331 2.0625C1.06158 0.6875 2.20221 0 3.82721 0H56.3272C57.9522 0 59.0928 0.6875 59.7491 2.0625C60.4053 3.4375 60.2647 4.75 59.3272 6L37.5772 33.75V56.25C37.5772 57.3125 37.2178 58.2031 36.4991 58.9219C35.7803 59.6406 34.8897 60 33.8272 60H26.3272ZM30.0772 31.125L48.6397 7.5H11.5147L30.0772 31.125Z" fill="#FE6235"/>
</svg>
