<svg width="34" height="38" viewBox="0 0 34 38" fill="none" xmlns="http://www.w3.org/2000/svg">
<path d="M9.375 18.75V15H13.125V18.75H9.375ZM20.625 18.75V15H24.375V18.75H20.625ZM0 37.5V22.5H1.875V15C1.875 12.9375 2.26562 10.9922 3.04688 9.16406C3.82812 7.33594 4.89844 5.74219 6.25781 4.38281C7.61719 3.02344 9.21094 1.95312 11.0391 1.17188C12.8672 0.390625 14.8125 0 16.875 0C18.9375 0 20.8828 0.390625 22.7109 1.17188C24.5391 1.95312 26.1328 3.02344 27.4922 4.38281C28.8516 5.74219 29.9219 7.33594 30.7031 9.16406C31.4844 10.9922 31.875 12.9375 31.875 15V22.5H33.75V37.5H0ZM3.75 33.75H7.5V26.25H3.75V33.75ZM11.25 33.75H15V26.25H11.25V33.75ZM5.625 22.5H15V3.89062C12.3125 4.32812 10.0781 5.58594 8.29688 7.66406C6.51562 9.74219 5.625 12.1875 5.625 15V22.5ZM18.75 22.5H28.125V15C28.125 12.1875 27.2344 9.74219 25.4531 7.66406C23.6719 5.58594 21.4375 4.32812 18.75 3.89062V22.5ZM18.75 33.75H22.5V26.25H18.75V33.75ZM26.25 33.75H30V26.25H26.25V33.75Z" fill="black"/>
</svg>
