<svg width="34" height="34" viewBox="0 0 34 34" fill="none" xmlns="http://www.w3.org/2000/svg">
<path d="M3.75 33.75C2.71875 33.75 1.83594 33.3828 1.10156 32.6484C0.367188 31.9141 0 31.0312 0 30V3.75C0 2.71875 0.367188 1.83594 1.10156 1.10156C1.83594 0.367188 2.71875 0 3.75 0H30C31.0312 0 31.9141 0.367188 32.6484 1.10156C33.3828 1.83594 33.75 2.71875 33.75 3.75V30C33.75 31.0312 33.3828 31.9141 32.6484 32.6484C31.9141 33.3828 31.0312 33.75 30 33.75H3.75ZM18.75 18.75V30H30V18.75H18.75ZM18.75 15H30V3.75H18.75V15ZM15 15V3.75H3.75V15H15ZM15 18.75H3.75V30H15V18.75Z" fill="black"/>
</svg>
