<svg width="77" height="54" viewBox="0 0 77 54" fill="none" xmlns="http://www.w3.org/2000/svg">
<path d="M9.91667 53.3333C7.13889 53.3333 4.79167 52.3611 2.875 50.4167C0.958333 48.4722 0 46.1111 0 43.3333V23.3333C0 21.5 0.652778 19.9306 1.95833 18.625C3.26389 17.3194 4.83333 16.6667 6.66667 16.6667H23.3333V0H40C42.7778 0 45.1389 0.972222 47.0833 2.91667C49.0278 4.86111 50 7.22222 50 10V23.3333H53.25V19.4167C53.25 18.5278 53.4306 17.6667 53.7917 16.8333C54.1528 16 54.6389 15.2778 55.25 14.6667L61.6667 8.33333L76.5833 36.6667H59.9167C58.0833 36.6667 56.5139 36.0139 55.2083 34.7083C53.9028 33.4028 53.25 31.8333 53.25 30H49.9167V35.8333C51.0278 36.7778 51.875 37.9028 52.4583 39.2083C53.0417 40.5139 53.3333 41.8889 53.3333 43.3333C53.3333 46.1111 52.3611 48.4722 50.4167 50.4167C48.4722 52.3611 46.1111 53.3333 43.3333 53.3333C41.2222 53.3333 39.3056 52.7222 37.5833 51.5C35.8611 50.2778 34.6111 48.6667 33.8333 46.6667H19.4167C18.6389 48.6667 17.3889 50.2778 15.6667 51.5C13.9444 52.7222 12.0278 53.3333 9.91667 53.3333ZM9.91667 46.6667C10.8611 46.6667 11.6667 46.3472 12.3333 45.7083C13 45.0694 13.3333 44.2778 13.3333 43.3333C13.3333 42.3889 13.0139 41.5972 12.375 40.9583C11.7361 40.3194 10.9444 40 10 40C9.05556 40 8.26389 40.3194 7.625 40.9583C6.98611 41.5972 6.66667 42.3889 6.66667 43.3333C6.66667 44.2778 6.97222 45.0694 7.58333 45.7083C8.19444 46.3472 8.97222 46.6667 9.91667 46.6667ZM45.7083 45.7083C46.3472 45.0694 46.6667 44.2778 46.6667 43.3333C46.6667 42.3889 46.3472 41.5972 45.7083 40.9583C45.0694 40.3194 44.2778 40 43.3333 40C42.3889 40 41.5972 40.3194 40.9583 40.9583C40.3194 41.5972 40 42.3889 40 43.3333C40 44.2778 40.3194 45.0694 40.9583 45.7083C41.5972 46.3472 42.3889 46.6667 43.3333 46.6667C44.2778 46.6667 45.0694 46.3472 45.7083 45.7083ZM23.3333 40V23.3333H6.66667V33.9167C7.22222 33.6944 7.76389 33.5417 8.29167 33.4583C8.81944 33.375 9.38889 33.3333 10 33.3333C12.1111 33.3333 14.0278 33.9444 15.75 35.1667C17.4722 36.3889 18.6944 38 19.4167 40H23.3333ZM30 40H33.8333C34.5556 38 35.7917 36.3889 37.5417 35.1667C39.2917 33.9444 41.2222 33.3333 43.3333 33.3333V30H30V40ZM65.5833 30L60 19.4167V30H65.5833ZM30 23.3333H43.3333V10C43.3333 9.05556 43.0139 8.26389 42.375 7.625C41.7361 6.98611 40.9444 6.66667 40 6.66667H30V23.3333ZM23.3333 40V33.3333V33.9167V23.3333V40Z" fill="#B78B6D"/>
</svg>
