<svg width="67" height="60" viewBox="0 0 67 60" fill="none" xmlns="http://www.w3.org/2000/svg">
<path d="M35 60V23.3333C34.2222 22.3333 33.2639 21.5278 32.125 20.9167C30.9861 20.3056 29.7222 20 28.3333 20C26.9444 20 25.6806 20.2917 24.5417 20.875C23.4028 21.4583 22.4444 22.2778 21.6667 23.3333H15C15 16.8333 17.2639 11.3194 21.7917 6.79167C26.3194 2.26389 31.8333 0 38.3333 0C44.8333 0 50.3472 2.26389 54.875 6.79167C59.4028 11.3194 61.6667 16.8333 61.6667 23.3333H55C54.2222 22.2778 53.2639 21.4583 52.125 20.875C50.9861 20.2917 49.7222 20 48.3333 20C46.9445 20 45.6806 20.3056 44.5417 20.9167C43.4028 21.5278 42.4445 22.3333 41.6667 23.3333V60H35ZM37.75 16.6667H38.9167C40.1945 15.6111 41.6528 14.7917 43.2917 14.2083C44.9306 13.625 46.6389 13.3333 48.4167 13.3333C49.0278 13.3333 49.625 13.375 50.2083 13.4583C50.7917 13.5417 51.3889 13.6389 52 13.75C50.5 11.5833 48.5556 9.86111 46.1667 8.58333C43.7778 7.30556 41.1667 6.66667 38.3333 6.66667C35.5 6.66667 32.8889 7.30556 30.5 8.58333C28.1111 9.86111 26.1667 11.5833 24.6667 13.75C25.2778 13.6389 25.875 13.5417 26.4583 13.4583C27.0417 13.375 27.6389 13.3333 28.25 13.3333C30.0278 13.3333 31.7361 13.625 33.375 14.2083C35.0139 14.7917 36.4722 15.6111 37.75 16.6667ZM46.6667 60V40H66.6667V60H60V46.6667H53.3333V60H46.6667ZM6.66667 60V49.8333C5.66667 49.5556 4.83333 49.0278 4.16667 48.25C3.5 47.4722 3.11111 46.5278 3 45.4167L0 13.3333H2.08333C3.36111 13.3333 4.48611 13.7778 5.45833 14.6667C6.43056 15.5556 6.97222 16.6389 7.08333 17.9167L9.08333 40H23.3333C25.1667 40 26.7361 40.6528 28.0417 41.9583C29.3472 43.2639 30 44.8333 30 46.6667V50H26.6667V60H21.6667V50H11.6667V60H6.66667Z" fill="#61ACCF"/>
</svg>
