<svg width="60" height="60" viewBox="0 0 60 60" fill="none" xmlns="http://www.w3.org/2000/svg">
<path d="M0 60V13.3333H13.3333V0H46.6667V26.6667H60V60H33.3333V46.6667H26.6667V60H0ZM6.66667 53.3333H13.3333V46.6667H6.66667V53.3333ZM6.66667 40H13.3333V33.3333H6.66667V40ZM6.66667 26.6667H13.3333V20H6.66667V26.6667ZM20 40H26.6667V33.3333H20V40ZM20 26.6667H26.6667V20H20V26.6667ZM20 13.3333H26.6667V6.66667H20V13.3333ZM33.3333 40H40V33.3333H33.3333V40ZM33.3333 26.6667H40V20H33.3333V26.6667ZM33.3333 13.3333H40V6.66667H33.3333V13.3333ZM46.6667 53.3333H53.3333V46.6667H46.6667V53.3333ZM46.6667 40H53.3333V33.3333H46.6667V40Z" fill="#AD8AD3"/>
</svg>
