<svg width="64" height="64" viewBox="0 0 64 64" fill="none" xmlns="http://www.w3.org/2000/svg">
<path d="M4.5 59C3.38889 59.4444 2.36111 59.3194 1.41667 58.625C0.472222 57.9306 0 57 0 55.8333V9.16667C0 8.44444 0.208333 7.80555 0.625 7.25C1.04167 6.69444 1.61111 6.27778 2.33333 6L20 0L40 7L55.5 1C56.6111 0.555556 57.6389 0.680556 58.5833 1.375C59.5278 2.06944 60 3 60 4.16667V32.25C59.1667 30.9722 58.1806 29.8056 57.0417 28.75C55.9028 27.6944 54.6667 26.7778 53.3333 26V9L43.3333 12.8333V23.3333C42.1667 23.3333 41.0278 23.4306 39.9167 23.625C38.8056 23.8194 37.7222 24.1111 36.6667 24.5V12.8333L23.3333 8.16667V51.75L4.5 59ZM6.66667 51L16.6667 47.1667V8.16667L6.66667 11.5V51ZM48.0417 48.3333C49.2917 47.2222 49.9444 45.5556 50 43.3333C50.0556 41.4444 49.4306 39.8611 48.125 38.5833C46.8194 37.3056 45.2222 36.6667 43.3333 36.6667C41.4444 36.6667 39.8611 37.3056 38.5833 38.5833C37.3056 39.8611 36.6667 41.4444 36.6667 43.3333C36.6667 45.2222 37.3056 46.8056 38.5833 48.0833C39.8611 49.3611 41.4444 50 43.3333 50C45.2222 50 46.7917 49.4444 48.0417 48.3333ZM43.3333 56.6667C39.6667 56.6667 36.5278 55.3611 33.9167 52.75C31.3056 50.1389 30 47 30 43.3333C30 39.6667 31.3056 36.5278 33.9167 33.9167C36.5278 31.3056 39.6667 30 43.3333 30C47 30 50.1389 31.3056 52.75 33.9167C55.3611 36.5278 56.6667 39.6667 56.6667 43.3333C56.6667 44.6111 56.5139 45.8194 56.2083 46.9583C55.9028 48.0972 55.4444 49.1667 54.8333 50.1667L63.3333 58.6667L58.6667 63.3333L50.1667 54.8333C49.1667 55.4444 48.0972 55.9028 46.9583 56.2083C45.8194 56.5139 44.6111 56.6667 43.3333 56.6667Z" fill="#4088B5"/>
</svg>
